<mxfile host="app.diagrams.net" modified="2024-02-01T09:55:38.276Z" agent="Mozilla/5.0 (Windows NT 10.0; Win64; x64) AppleWebKit/537.36 (KHTML, like Gecko) Chrome/121.0.0.0 Safari/537.36" version="23.1.0" etag="RuDdr3YSXNlrgCTuMQHA" type="github">
  <diagram name="Seite-1" id="qGp5nDj4PBawe3HI0JrH">
    <mxGraphModel>
      <root>
        <mxCell id="0" />
        <mxCell id="1" parent="0" />
      </root>
    </mxGraphModel>
  </diagram>
</mxfile>
